<?xml version="1.0" encoding="utf-8"?>
<!-- Generator: Adobe Illustrator 16.0.0, SVG Export Plug-In . SVG Version: 6.00 Build 0)  -->
<!DOCTYPE svg PUBLIC "-//W3C//DTD SVG 1.1//EN" "http://www.w3.org/Graphics/SVG/1.1/DTD/svg11.dtd">
<svg version="1.1" xmlns="http://www.w3.org/2000/svg" xmlns:xlink="http://www.w3.org/1999/xlink" x="0px" y="0px"
	 width="160px" height="160px" viewBox="0 0 160 160" enable-background="new 0 0 160 160" xml:space="preserve">
<path id="eqxiu.con_1_" fill="#FFFFFF" d="M49.28,10.656l-3.145-0.699L48.349,0h31.89v3.221h-6.938l1.732,6.682l-3.117,0.808
	l-1.942-7.49H50.933L49.28,10.656z M83.619,0v1.396l-0.143-0.021l-1.289,8.696l3.186,0.472l1.086-7.322h19.863l1.652,7.435
	l3.145-0.699l-1.497-6.736h6.044V0H83.619z M60.745,15.147l-16.104-1.933l-0.307,2.559l16.104,1.932L60.745,15.147z M114.378,58.94
	V13.85H63.973v3.221h47.185v41.87H114.378z M54.794,18.681h51.21h3.221v3.221v14.333v0.161v3.06v0.161v14.815v3.221h-3.221h-51.21
	h-3.221v-3.221V39.616v-0.161v-3.06v-0.161V21.901v-3.221H54.794z M106.004,39.616h-51.21v14.815h51.21V39.616z M106.004,21.901
	h-51.21v14.333h51.21V21.901z M48.996,58.94V18.358H46.42V58.94H48.996z M46.098,159.751h3.221v-54.432h66.348v-3.221H46.098
	V159.751z M70.557,106.535l-3.183-0.498l-0.846,5.402h-5.938v3.221h5.433L59,159.502L62.183,160l7.101-45.34h41.874v41.226H90.866
	v3.221h23.512v-47.667h-44.59L70.557,106.535z"/>
</svg>
